<svg xmlns="http://www.w3.org/2000/svg" viewBox="0 0 100 100">
  <defs>
    <linearGradient id="wingGradient" x1="0%" y1="0%" x2="100%" y2="100%">
      <stop offset="0%" style="stop-color:#4facfe;stop-opacity:1" />
      <stop offset="100%" style="stop-color:#00f2fe;stop-opacity:1" />
    </linearGradient>
  </defs>
  <!-- Right Wing -->
  <path d="M52,50 Q80,20 90,40 Q95,60 80,70 Q60,80 52,55" fill="url(#wingGradient)" opacity="0.9" />
  <path d="M52,55 Q70,75 80,85 Q60,95 52,60" fill="url(#wingGradient)" opacity="0.8" />
  
  <!-- Left Wing -->
  <path d="M48,50 Q20,20 10,40 Q5,60 20,70 Q40,80 48,55" fill="url(#wingGradient)" opacity="0.9" />
  <path d="M48,55 Q30,75 20,85 Q40,95 48,60" fill="url(#wingGradient)" opacity="0.8" />
  
  <!-- Body -->
  <ellipse cx="50" cy="50" rx="3" ry="20" fill="#333" />
  <!-- Antennae -->
  <path d="M48,32 Q40,20 35,25" fill="none" stroke="#333" stroke-width="1" />
  <path d="M52,32 Q60,20 65,25" fill="none" stroke="#333" stroke-width="1" />
</svg>
